<?xml version="1.0" standalone="no"?><!DOCTYPE svg PUBLIC "-//W3C//DTD SVG 1.1//EN" "http://www.w3.org/Graphics/SVG/1.1/DTD/svg11.dtd"><svg t="1658396409942" class="icon" viewBox="0 0 1024 1024" version="1.1" xmlns="http://www.w3.org/2000/svg" p-id="13416" xmlns:xlink="http://www.w3.org/1999/xlink" width="200" height="200"><defs><style type="text/css">@font-face { font-family: feedback-iconfont; src: url("//at.alicdn.com/t/font_1031158_u69w8yhxdu.woff2?t=1630033759944") format("woff2"), url("//at.alicdn.com/t/font_1031158_u69w8yhxdu.woff?t=1630033759944") format("woff"), url("//at.alicdn.com/t/font_1031158_u69w8yhxdu.ttf?t=1630033759944") format("truetype"); }
</style></defs><path d="M1024 514.688h-96V128a32 32 0 0 0-32-32H128a32 32 0 0 0-32 32v768a32 32 0 0 0 32 32h489.088V1024H128a128 128 0 0 1-128-128V128a128 128 0 0 1 128-128h768a128 128 0 0 1 128 128v386.688z" fill="#13CBB9" p-id="13417"></path><path d="M576 848v-96h445.44v96z" fill="#13CBB9" p-id="13418"></path><path d="M752 576h96v447.168h-96z" fill="#13CBB9" p-id="13419"></path><path d="M256 256m32 0l448 0q32 0 32 32l0 0q0 32-32 32l-448 0q-32 0-32-32l0 0q0-32 32-32Z" fill="#13CBB9" p-id="13420"></path><path d="M256 448m32 0l448 0q32 0 32 32l0 0q0 32-32 32l-448 0q-32 0-32-32l0 0q0-32 32-32Z" fill="#13CBB9" p-id="13421"></path><path d="M256 640m32 0l192 0q32 0 32 32l0 0q0 32-32 32l-192 0q-32 0-32-32l0 0q0-32 32-32Z" fill="#13CBB9" p-id="13422"></path></svg>