<?xml version="1.0" standalone="no"?><!DOCTYPE svg PUBLIC "-//W3C//DTD SVG 1.1//EN" "http://www.w3.org/Graphics/SVG/1.1/DTD/svg11.dtd"><svg t="1658158188182" class="icon" viewBox="0 0 1024 1024" version="1.1" xmlns="http://www.w3.org/2000/svg" p-id="12169" xmlns:xlink="http://www.w3.org/1999/xlink" width="200" height="200"><defs><style type="text/css">@font-face { font-family: feedback-iconfont; src: url("//at.alicdn.com/t/font_1031158_u69w8yhxdu.woff2?t=1630033759944") format("woff2"), url("//at.alicdn.com/t/font_1031158_u69w8yhxdu.woff?t=1630033759944") format("woff"), url("//at.alicdn.com/t/font_1031158_u69w8yhxdu.ttf?t=1630033759944") format("truetype"); }
</style></defs><path d="M792.102014 136.134127l56.595639 11.621281a19.407539 19.407539 0 0 1 15.223878 23.242562l-66.008876 340.735961a19.175114 19.175114 0 0 1-22.545286 15.223878l-56.711851-11.621281a19.523752 19.523752 0 0 1-15.223878-23.242562l66.125089-342.36294a19.175114 19.175114 0 0 1 22.545285-13.596899z" fill="#FFE99C" p-id="12170"></path><path d="M689.021251 61.641715l55.084872 16.967071a19.407539 19.407539 0 0 1 12.783409 24.288477L633.239102 510.45559a19.291327 19.291327 0 0 1-24.056052 12.899622l-55.201085-16.967071a19.407539 19.407539 0 0 1-12.783409-24.172264L664.965199 74.541337a19.291327 19.291327 0 0 1 24.056052-12.899622zM523.18557 0.281351l75.770753 13.480686a19.407539 19.407539 0 0 1 15.688729 22.429073l-73.562709 419.876884a19.175114 19.175114 0 0 1-22.196647 15.68873l-75.770752-13.480686a19.291327 19.291327 0 0 1-15.68873-22.429073l73.562709-419.760672A19.175114 19.175114 0 0 1 523.18557 0.281351z" fill="#FFE99C" p-id="12171"></path><path d="M147.719574 162.107993l91.514659-29.734916 119.765632 368.600711-91.51466 29.734916-119.765631-368.600711Z" fill="#FFE99C" p-id="12172"></path><path d="M336.664009 59.433672a19.175114 19.175114 0 0 1 23.242562 14.526601l95.178292 415.344585a19.407539 19.407539 0 0 1-14.410388 23.242562l-56.247001 13.015835a19.058901 19.058901 0 0 1-23.242562-14.526601L266.122833 95.692069a19.407539 19.407539 0 0 1 14.410389-23.242562z" fill="#FFE99C" p-id="12173"></path><path d="M722.955392 496.39384l55.665936 10.924004 65.892664-341.665663-55.665937-10.924004z m69.146622-360.259713l56.595639 11.621281a19.407539 19.407539 0 0 1 15.223878 23.242562l-66.008876 340.735961a19.175114 19.175114 0 0 1-22.545286 15.223878l-56.711851-11.621281a19.523752 19.523752 0 0 1-15.223878-23.242562l66.125089-342.36294a19.175114 19.175114 0 0 1 22.545285-13.596899zM683.675462 80.700616l-123.418005 406.744837 54.15517 16.734645 123.534217-406.744837z m5.345789-19.058901l55.084872 16.967071a19.407539 19.407539 0 0 1 12.783409 24.288477L633.239102 510.45559a19.291327 19.291327 0 0 1-24.056052 12.899622l-55.201085-16.967071a19.407539 19.407539 0 0 1-12.783409-24.172264L664.965199 74.541337a19.291327 19.291327 0 0 1 24.056052-12.899622zM520.28025 19.921316l-73.330284 418.947183 74.841051 13.364473 73.330283-419.063395zM523.18557 0.281351l75.770753 13.480686a19.407539 19.407539 0 0 1 15.688729 22.429073l-73.562709 419.876884a19.175114 19.175114 0 0 1-22.196647 15.68873l-75.770752-13.480686a19.291327 19.291327 0 0 1-15.68873-22.429073l73.562709-419.760672A19.175114 19.175114 0 0 1 523.18557 0.281351zM226.610478 157.284858l107.613062 330.974085-53.922744 17.548134-107.613063-330.974084z m-6.043067-18.710262l-53.690318 17.431921a19.756178 19.756178 0 0 0-12.899622 24.869542l107.49685 331.090297a19.756178 19.756178 0 0 0 24.869541 12.667197l53.922744-17.548135a19.756178 19.756178 0 0 0 12.550984-24.869541L245.436953 151.241792a19.639965 19.639965 0 0 0-24.869542-12.667196z" fill="#534C41" p-id="12174"></path><path d="M285.41416 91.62462l95.062079 414.647309 55.201085-12.899622-94.481015-414.531096z m51.249849-32.190948a19.175114 19.175114 0 0 1 23.242562 14.526601l95.178292 415.344585a19.407539 19.407539 0 0 1-14.410388 23.242562l-56.247001 13.015835a19.058901 19.058901 0 0 1-23.242562-14.526601L266.122833 95.692069a19.407539 19.407539 0 0 1 14.410389-23.242562z" fill="#534C41" p-id="12175"></path><path d="M188.492676 345.317186h-2.208044a19.756178 19.756178 0 0 0-17.315709 21.964221l65.3116 567.002303a78.908498 78.908498 0 0 0 78.443647 69.727687h400.353133a79.024711 79.024711 0 0 0 78.55986-69.727687l65.311599-566.769877a15.572517 15.572517 0 0 0 0-2.324256 19.756178 19.756178 0 0 0-19.756177-19.756178z m0-19.756178h648.235057a39.512356 39.512356 0 0 1 39.512356 39.512356v4.532299l-65.544025 566.886091a98.897102 98.897102 0 0 1-97.618761 87.508246H312.72417a98.664676 98.664676 0 0 1-98.083612-87.508246L149.328958 369.721876a39.512356 39.512356 0 0 1 34.863844-43.812229z" fill="#534A41" p-id="12176"></path><path d="M188.492676 345.317186h648.235057a19.756178 19.756178 0 0 1 19.756178 19.756178 15.572517 15.572517 0 0 1 0 2.324256l-65.427812 566.88609a79.024711 79.024711 0 0 1-78.55986 69.727687h-399.772069a78.908498 78.908498 0 0 1-78.443647-69.727687L168.968923 367.513833a19.756178 19.756178 0 0 1 17.315709-22.196647z" fill="#FFFFFF" p-id="12177"></path><path d="M447.647243 345.433399h149.798313l-18.826475 658.810423h-112.261575L447.647243 345.433399z" fill="#FFD9D9" p-id="12178"></path><path d="M672.286606 345.433399H803.258444l-56.130788 658.810423h-93.551312l18.710262-658.810423z" fill="#FFD9D9" p-id="12179"></path><path d="M373.735896 345.433399H242.647845l56.130788 658.810423h93.667525l-18.710262-658.810423z" fill="#FFD9D9" p-id="12180"></path><path d="M321.440131 616.674099a96.921484 96.921484 0 1 1 96.107994-97.037697 96.572846 96.572846 0 0 1-96.107994 97.037697z m384.664403 0a96.921484 96.921484 0 1 1 96.224207-97.037697 96.456633 96.456633 0 0 1-96.224207 97.037697z" fill="#FDC6B2" p-id="12181"></path><path d="M456.014566 422.947343a19.291327 19.291327 0 0 1 19.291326 19.291327v19.291327a19.291327 19.291327 0 0 1-38.46644 0v-19.291327a19.175114 19.175114 0 0 1 19.175114-19.291327z m115.515533 0a19.175114 19.175114 0 0 1 19.175114 19.291327v19.291327a19.291327 19.291327 0 0 1-38.46644 0v-19.291327a19.291327 19.291327 0 0 1 19.291326-19.291327z" fill="#534A41" p-id="12182"></path><path d="M484.951556 539.160154h58.106405a9.761876 9.761876 0 0 1 9.645663 9.761876 9.645663 9.645663 0 0 1-9.645663 9.645663h-58.106405a9.645663 9.645663 0 0 1-9.645664-9.645663 9.761876 9.761876 0 0 1 9.645664-9.761876z" fill="#534A41" p-id="12183"></path></svg>